<?xml version="1.0" encoding="UTF-8"?>
<svg width="700pt" height="700pt" version="1.1" viewBox="0 0 700 700" xmlns="http://www.w3.org/2000/svg">
 <g>
  <path d="m137.5 456.25c0 10.355-8.3945 18.75-18.75 18.75s-18.75-8.3945-18.75-18.75 8.3945-18.75 18.75-18.75 18.75 8.3945 18.75 18.75"/>
  <path d="m212.5 456.25c0 10.355-8.3945 18.75-18.75 18.75s-18.75-8.3945-18.75-18.75 8.3945-18.75 18.75-18.75 18.75 8.3945 18.75 18.75"/>
  <path d="m287.5 456.25c0 10.355-8.3945 18.75-18.75 18.75s-18.75-8.3945-18.75-18.75 8.3945-18.75 18.75-18.75 18.75 8.3945 18.75 18.75"/>
  <path d="m362.5 456.25c0 10.355-8.3945 18.75-18.75 18.75s-18.75-8.3945-18.75-18.75 8.3945-18.75 18.75-18.75 18.75 8.3945 18.75 18.75"/>
  <path d="m437.5 456.25c0 10.355-8.3945 18.75-18.75 18.75s-18.75-8.3945-18.75-18.75 8.3945-18.75 18.75-18.75 18.75 8.3945 18.75 18.75"/>
  <path d="m512.5 456.25c0 10.355-8.3945 18.75-18.75 18.75s-18.75-8.3945-18.75-18.75 8.3945-18.75 18.75-18.75 18.75 8.3945 18.75 18.75"/>
  <path d="m587.5 456.25c0 10.355-8.3945 18.75-18.75 18.75s-18.75-8.3945-18.75-18.75 8.3945-18.75 18.75-18.75 18.75 8.3945 18.75 18.75"/>
  <path d="m568.75 437.5c1.7656 0.023438 3.5234 0.30469 5.2109 0.82422-4.4023-58.016-30.555-112.23-73.223-151.78-42.668-39.555-98.699-61.535-156.88-61.543-58.184-0.007812-114.22 21.961-156.89 61.508-42.676 39.547-68.84 93.75-73.258 151.77 5.2969-1.6016 11.035-0.69141 15.574 2.4688 3.6133-6.3984 9.3867-11.305 16.285-13.84 6.8984-2.5352 14.473-2.5352 21.371 0 6.8945 2.5352 12.668 7.4414 16.281 13.84 2.75-1.8906 5.9648-3 9.2969-3.207 3.3281-0.20703 6.6562 0.49219 9.6211 2.0273 3.9844-16.523 14.016-30.953 28.109-40.453 14.098-9.4961 31.238-13.375 48.047-10.867-7.6875 15.746-12.672 32.676-14.738 50.078 4.1094-1.2891 8.5469-1.0547 12.5 0.65625 2.0586-16.672 7.0273-32.852 14.688-47.805 22.086 7.5703 38.836 25.809 44.5 48.457 4.043-2.1914 8.7852-2.7148 13.211-1.4609-4.3711-28.434-18.922-54.312-40.945-72.82 31.5-38.645 80.797-58.176 130.21-51.59 49.422 6.5859 91.883 38.348 112.16 83.891-13.852-13.324-31.988-21.297-51.172-22.492-19.188-1.1914-38.172 4.4688-53.57 15.977-15.395 11.508-26.203 28.109-30.492 46.848 5.0508-1.1758 10.359-0.17188 14.633 2.7617 3.6133-6.3984 9.3867-11.305 16.285-13.84 6.8984-2.5352 14.473-2.5352 21.371 0s12.668 7.4414 16.281 13.84c3.1055-2.1172 6.7734-3.2461 10.531-3.2422 0.66016 0.03125 1.3164 0.097656 1.9688 0.19922-3.5117-7.5117-9.0859-13.871-16.074-18.332-6.9883-4.4609-15.102-6.8438-23.395-6.8672-6.5195 0.035156-12.945 1.543-18.797 4.4141 10.082-14.508 25.383-24.562 42.703-28.059 17.32-3.4961 35.324-0.16797 50.246 9.293 14.922 9.4609 25.613 24.324 29.84 41.48 2.625-1.3789 5.543-2.1094 8.5078-2.1289zm-284.16-60.926c-19.438-3.8867-39.625-0.51953-56.746 9.4648-17.125 9.9844-29.996 25.895-36.184 44.723-6.6406-9.3359-16.699-15.672-27.988-17.625-11.289-1.9531-22.895 0.63281-32.285 7.1953 10.988-30.742 35.531-54.711 66.527-64.965 30.996-10.258 64.988-5.6562 92.145 12.465-1.9492 2.8281-3.707 5.7852-5.4688 8.7422zm27.844 11.277c-4.8555-3.1016-10.023-5.6758-15.422-7.6797 1-1.5938 1.9258-3.2344 2.9883-4.7852 4.4766 3.8086 8.6367 7.9766 12.434 12.465zm106.32-87.852c-47.043 0.003906-91.57 21.238-121.18 57.793-24.891-16.816-55.242-23.543-84.906-18.82-29.664 4.7227-56.426 20.543-74.863 44.258 18.984-53.797 58.266-98.031 109.44-123.24 51.176-25.215 110.18-29.402 164.41-11.672 54.223 17.73 99.359 55.969 125.75 106.55-29.602-34.793-72.977-54.848-118.66-54.863z"/>
 </g>
</svg>
